HIERARCHY
ROOT mixamorig_Hips
{
	OFFSET -0.000329 0.934763 0.013172
	CHANNELS 6 Xposition Yposition Zposition Xrotation Yrotation Zrotation
	JOINT mixamorig_Spine
	{
		OFFSET -0.000531 0.096594 0.001533
		CHANNELS 3 Xrotation Yrotation Zrotation
		JOINT mixamorig_Spine1
		{
			OFFSET -0.000284 0.099406 -0.006202
			CHANNELS 3 Xrotation Yrotation Zrotation
			JOINT mixamorig_Spine2
			{
				OFFSET -0.000665 0.100821 -0.005436
				CHANNELS 3 Xrotation Yrotation Zrotation
				JOINT mixamorig_Neck
				{
					OFFSET -0.003569 0.181005 -0.017910
					CHANNELS 3 Xrotation Yrotation Zrotation
					JOINT mixamorig_Head
					{
						OFFSET -0.000567 0.090675 0.004608
						CHANNELS 3 Xrotation Yrotation Zrotation
						End Site
						{
							OFFSET -0.027755 0.065308 0.087730
						}
						End Site
						{
							OFFSET 0.030266 0.066100 0.089151
						}
						End Site
						{
							OFFSET 0.000889 0.164225 0.030118
						}
					}
				}
				JOINT mixamorig_LeftShoulder
				{
					OFFSET 0.040153 0.123825 -0.018173
					CHANNELS 3 Xrotation Yrotation Zrotation
					JOINT mixamorig_LeftArm
					{
						OFFSET 0.096846 -0.006770 -0.015789
						CHANNELS 3 Xrotation Yrotation Zrotation
						JOINT mixamorig_LeftForeArm
						{
							OFFSET 0.260836 0.000158 -0.012098
							CHANNELS 3 Xrotation Yrotation Zrotation
							JOINT mixamorig_LeftHand
							{
								OFFSET 0.260721 0.009445 0.003518
								CHANNELS 3 Xrotation Yrotation Zrotation
								JOINT mixamorig_LeftHandThumb1
								{
									OFFSET 0.020007 -0.013915 0.025888
									CHANNELS 3 Xrotation Yrotation Zrotation
									JOINT mixamorig_LeftHandThumb2
									{
										OFFSET 0.024753 -0.016879 0.017465
										CHANNELS 3 Xrotation Yrotation Zrotation
										JOINT mixamorig_LeftHandThumb3
										{
											OFFSET 0.022267 -0.009924 0.010944
											CHANNELS 3 Xrotation Yrotation Zrotation
											End Site
											{
												OFFSET 0.012616 -0.008684 0.013475
											}
										}
									}
								}
								JOINT mixamorig_LeftHandIndex1
								{
									OFFSET 0.075712 -0.004005 0.022878
									CHANNELS 3 Xrotation Yrotation Zrotation
									JOINT mixamorig_LeftHandIndex2
									{
										OFFSET 0.032025 0.000805 0.000360
										CHANNELS 3 Xrotation Yrotation Zrotation
										JOINT mixamorig_LeftHandIndex3
										{
											OFFSET 0.021636 -0.000922 0.001709
											CHANNELS 3 Xrotation Yrotation Zrotation
											End Site
											{
												OFFSET 0.022272 0.000343 -0.000989
											}
										}
									}
								}
								JOINT mixamorig_LeftHandMiddle1
								{
									OFFSET 0.077672 0.000197 0.003119
									CHANNELS 3 Xrotation Yrotation Zrotation
									JOINT mixamorig_LeftHandMiddle2
									{
										OFFSET 0.028817 -0.000836 0.000007
										CHANNELS 3 Xrotation Yrotation Zrotation
										JOINT mixamorig_LeftHandMiddle3
										{
											OFFSET 0.027734 -0.001265 -0.001079
											CHANNELS 3 Xrotation Yrotation Zrotation
											End Site
											{
												OFFSET 0.021544 0.002739 0.001746
											}
										}
									}
								}
								JOINT mixamorig_LeftHandRing1
								{
									OFFSET 0.072647 0.000468 -0.012545
									CHANNELS 3 Xrotation Yrotation Zrotation
									JOINT mixamorig_LeftHandRing2
									{
										OFFSET 0.023428 0.001297 -0.001540
										CHANNELS 3 Xrotation Yrotation Zrotation
										JOINT mixamorig_LeftHandRing3
										{
											OFFSET 0.025300 -0.000202 0.000300
											CHANNELS 3 Xrotation Yrotation Zrotation
											End Site
											{
												OFFSET 0.021378 -0.000642 0.000026
											}
										}
									}
								}
								JOINT mixamorig_LeftHandPinky1
								{
									OFFSET 0.067362 -0.004561 -0.028241
									CHANNELS 3 Xrotation Yrotation Zrotation
									JOINT mixamorig_LeftHandPinky2
									{
										OFFSET 0.024539 0.000905 -0.001802
										CHANNELS 3 Xrotation Yrotation Zrotation
										JOINT mixamorig_LeftHandPinky3
										{
											OFFSET 0.016774 0.000497 -0.000418
											CHANNELS 3 Xrotation Yrotation Zrotation
											End Site
											{
												OFFSET 0.016253 0.001664 -0.000439
											}
										}
									}
								}
							}
						}
					}
				}
				JOINT mixamorig_RightShoulder
				{
					OFFSET -0.044710 0.123416 -0.018691
					CHANNELS 3 Xrotation Yrotation Zrotation
					JOINT mixamorig_RightArm
					{
						OFFSET -0.093285 -0.007451 -0.015294
						CHANNELS 3 Xrotation Yrotation Zrotation
						JOINT mixamorig_RightForeArm
						{
							OFFSET -0.260082 -0.000676 -0.016999
							CHANNELS 3 Xrotation Yrotation Zrotation
							JOINT mixamorig_RightHand
							{
								OFFSET -0.269354 0.006819 -0.001623
								CHANNELS 3 Xrotation Yrotation Zrotation
								JOINT mixamorig_RightHandPinky1
								{
									OFFSET -0.068944 -0.004710 -0.027276
									CHANNELS 3 Xrotation Yrotation Zrotation
									JOINT mixamorig_RightHandPinky2
									{
										OFFSET -0.028424 0.000709 -0.002294
										CHANNELS 3 Xrotation Yrotation Zrotation
										JOINT mixamorig_RightHandPinky3
										{
											OFFSET -0.014087 -0.000537 -0.000408
											CHANNELS 3 Xrotation Yrotation Zrotation
											End Site
											{
												OFFSET -0.016161 0.000319 -0.000701
											}
										}
									}
								}
								JOINT mixamorig_RightHandRing1
								{
									OFFSET -0.073644 -0.000271 -0.011566
									CHANNELS 3 Xrotation Yrotation Zrotation
									JOINT mixamorig_RightHandRing2
									{
										OFFSET -0.022262 0.002187 -0.001227
										CHANNELS 3 Xrotation Yrotation Zrotation
										JOINT mixamorig_RightHandRing3
										{
											OFFSET -0.024959 0.000014 0.001033
											CHANNELS 3 Xrotation Yrotation Zrotation
											End Site
											{
												OFFSET -0.020342 -0.002927 -0.000438
											}
										}
									}
								}
								JOINT mixamorig_RightHandMiddle1
								{
									OFFSET -0.078465 0.000178 0.003924
									CHANNELS 3 Xrotation Yrotation Zrotation
									JOINT mixamorig_RightHandMiddle2
									{
										OFFSET -0.030586 0.000877 -0.000514
										CHANNELS 3 Xrotation Yrotation Zrotation
										JOINT mixamorig_RightHandMiddle3
										{
											OFFSET -0.024860 -0.001171 -0.001812
											CHANNELS 3 Xrotation Yrotation Zrotation
											End Site
											{
												OFFSET -0.022346 -0.000216 0.001043
											}
										}
									}
								}
								JOINT mixamorig_RightHandIndex1
								{
									OFFSET -0.077138 -0.004903 0.023488
									CHANNELS 3 Xrotation Yrotation Zrotation
									JOINT mixamorig_RightHandIndex2
									{
										OFFSET -0.032982 0.000016 -0.000651
										CHANNELS 3 Xrotation Yrotation Zrotation
										JOINT mixamorig_RightHandIndex3
										{
											OFFSET -0.021521 -0.001038 0.000640
											CHANNELS 3 Xrotation Yrotation Zrotation
											End Site
											{
												OFFSET -0.019633 -0.001183 -0.002236
											}
										}
									}
								}
								JOINT mixamorig_RightHandThumb1
								{
									OFFSET -0.019217 -0.014120 0.025973
									CHANNELS 3 Xrotation Yrotation Zrotation
									JOINT mixamorig_RightHandThumb2
									{
										OFFSET -0.024531 -0.016682 0.017772
										CHANNELS 3 Xrotation Yrotation Zrotation
										JOINT mixamorig_RightHandThumb3
										{
											OFFSET -0.020595 -0.008213 0.010052
											CHANNELS 3 Xrotation Yrotation Zrotation
											End Site
											{
												OFFSET -0.018779 -0.008914 0.011284
											}
										}
									}
								}
							}
						}
					}
				}
			}
		}
	}
	JOINT mixamorig_LeftUpLeg
	{
		OFFSET 0.082644 -0.061097 -0.015299
		CHANNELS 3 Xrotation Yrotation Zrotation
		JOINT mixamorig_LeftLeg
		{
			OFFSET 0.011706 -0.407894 -0.000411
			CHANNELS 3 Xrotation Yrotation Zrotation
			JOINT mixamorig_LeftFoot
			{
				OFFSET -0.009807 -0.381384 -0.042699
				CHANNELS 3 Xrotation Yrotation Zrotation
				JOINT mixamorig_LeftToeBase
				{
					OFFSET -0.009374 -0.069665 0.102141
					CHANNELS 3 Xrotation Yrotation Zrotation
					End Site
					{
						OFFSET -0.003020 -0.006885 0.094051
					}
				}
			}
		}
	}
	JOINT mixamorig_RightUpLeg
	{
		OFFSET -0.081973 -0.063719 -0.012470
		CHANNELS 3 Xrotation Yrotation Zrotation
		JOINT mixamorig_RightLeg
		{
			OFFSET -0.006811 -0.412091 0.011100
			CHANNELS 3 Xrotation Yrotation Zrotation
			JOINT mixamorig_RightFoot
			{
				OFFSET 0.004573 -0.370721 -0.055504
				CHANNELS 3 Xrotation Yrotation Zrotation
				JOINT mixamorig_RightToeBase
				{
					OFFSET 0.011350 -0.073821 0.101054
					CHANNELS 3 Xrotation Yrotation Zrotation
					End Site
					{
						OFFSET 0.000203 -0.006417 0.095416
					}
				}
			}
		}
	}
}
MOTION
Frames: 4
Frame Time: 0.03333333333333333
-0.008068 -0.366032 0.017309 0.042146 8.255940 0.680780 14.263105 0.245015 0.044379 -0.673699 0.109128 -0.630490 -0.195335 0.155347 -0.384145 -1.664894 -1.363555 0.637270 -10.671051 -4.952772 -6.656565 2.472921 -13.472046 -1.487502 -2.789088 -39.103065 -59.415132 2.951043 -54.035688 3.606728 31.498869 2.606851 42.003036 23.665146 15.645681 -8.319101 -14.034636 -3.322562 -19.089886 -14.963927 8.789738 0.806390 -0.869301 3.806715 -10.871676 -0.706263 0.662748 -24.058660 -0.550144 0.129499 -13.815172 -0.000000 -0.000000 0.000000 -0.000000 -0.000000 0.000000 0.000000 0.000000 -0.000000 -0.000000 0.000000 0.000000 0.000000 0.000000 0.000000 0.000000 -0.000000 0.000000 -0.000000 -0.000000 0.000000 0.000000 -0.000000 0.000000 0.000001 0.000000 0.000000 1.871646 -3.791314 8.228337 -11.206829 33.933429 66.436039 2.145499 50.104155 -3.124849 45.682511 6.063159 -30.676105 -0.000000 0.000000 0.000000 -0.000000 0.000000 0.000000 -0.000002 -0.000000 -0.000000 0.000000 -0.000000 -0.000000 0.000001 0.000000 -0.000001 -0.000003 -0.000000 0.000003 -0.000003 0.000000 0.000001 -0.000000 0.000000 -0.000001 0.000004 0.000000 -0.000001 4.035525 -1.762308 -16.525175 -1.678024 0.030344 39.637461 -0.917955 0.247474 17.934765 4.877598 -12.204920 6.585317 -18.775384 0.771278 28.070709 -17.440866 -22.729781 -9.262969 -86.732762 2.264956 2.429630 81.404497 14.073733 10.852933 0.816612 -13.820933 -7.477894 0.000000 -0.000000 -0.000000 -81.149995 13.256389 -16.724478 78.975007 1.171931 6.982011 2.366969 -10.102459 6.332411 0.000000 0.000000 -0.000000 
-0.008049 -0.366043 0.017297 0.039240 8.253638 0.684835 14.257783 0.238824 0.061326 -0.672691 0.109552 -0.630505 -0.194314 0.155135 -0.383769 -1.615901 -1.360224 0.686836 -10.611427 -4.896835 -6.615657 2.471330 -13.429396 -1.387417 -2.885001 -39.209672 -59.540965 2.932383 -53.924120 3.584167 31.441077 2.566639 42.069399 23.665146 15.645681 -8.319101 -14.034636 -3.322562 -19.089886 -14.963927 8.789738 0.806390 -0.870609 3.807981 -10.897882 -0.707176 0.664457 -24.102606 -0.551566 0.131092 -13.859101 -0.000000 -0.000000 0.000000 -0.000000 -0.000000 0.000000 0.000000 0.000000 -0.000000 -0.000000 0.000000 0.000000 0.000000 0.000000 0.000000 0.000000 -0.000000 0.000000 -0.000000 -0.000000 0.000000 0.000000 -0.000000 0.000000 0.000001 0.000000 0.000000 1.874027 -3.813761 8.229014 -11.240302 33.919882 66.474158 2.145298 50.102429 -3.124570 45.730883 6.071675 -30.653269 -0.000000 0.000000 0.000000 -0.000000 0.000000 0.000000 -0.000002 -0.000000 -0.000000 0.000000 -0.000000 -0.000000 0.000001 0.000000 -0.000001 -0.000003 -0.000000 0.000003 -0.000003 0.000000 0.000001 -0.000000 0.000000 -0.000001 0.000004 0.000000 -0.000001 4.035525 -1.762308 -16.525175 -1.678024 0.030344 39.637461 -0.917955 0.247474 17.934765 4.877598 -12.204920 6.585317 -18.775384 0.771278 28.070709 -17.440865 -22.729781 -9.262968 -86.729354 2.263170 2.429257 81.404326 14.078227 10.853203 0.816446 -13.820471 -7.484360 0.000000 -0.000000 -0.000000 -81.149531 13.259530 -16.724852 78.977500 1.175360 6.982361 2.365724 -10.101744 6.331404 0.000000 0.000000 -0.000000 
-0.008035 -0.366051 0.017281 0.036246 8.251869 0.688793 14.255343 0.234000 0.079004 -0.671524 0.110507 -0.630423 -0.193125 0.155543 -0.383339 -1.569047 -1.355432 0.714186 -10.519491 -4.862164 -6.578827 2.470332 -13.383989 -1.322363 -2.946901 -39.315569 -59.612904 2.917746 -53.836124 3.566446 31.380505 2.534893 42.124130 23.665146 15.645681 -8.319101 -14.034636 -3.322562 -19.089886 -14.963927 8.789738 0.806390 -0.871535 3.808958 -10.917084 -0.707844 0.665708 -24.134916 -0.552615 0.132263 -13.891386 -0.000000 -0.000000 0.000000 -0.000000 -0.000000 0.000000 0.000000 0.000000 -0.000000 -0.000000 0.000000 0.000000 0.000000 0.000000 0.000000 0.000000 -0.000000 0.000000 -0.000000 -0.000000 0.000000 0.000000 -0.000000 0.000000 0.000001 0.000000 0.000000 1.878146 -3.839396 8.211602 -11.285786 33.909022 66.533169 2.144122 50.092985 -3.123035 45.778694 6.081025 -30.638732 -0.000000 0.000000 0.000000 -0.000000 0.000000 0.000000 -0.000002 -0.000000 -0.000000 0.000000 -0.000000 -0.000000 0.000001 0.000000 -0.000001 -0.000003 -0.000000 0.000003 -0.000003 0.000000 0.000001 -0.000000 0.000000 -0.000001 0.000004 0.000000 -0.000001 4.035525 -1.762308 -16.525175 -1.678024 0.030344 39.637461 -0.917955 0.247474 17.934765 4.877598 -12.204920 6.585317 -18.775384 0.771278 28.070709 -17.440865 -22.729781 -9.262968 -86.725982 2.262083 2.428300 81.403769 14.081408 10.853401 0.816723 -13.820335 -7.487090 0.000000 -0.000000 -0.000000 -81.148365 13.262695 -16.725653 78.979387 1.178392 6.982648 2.364747 -10.100969 6.330201 0.000000 0.000000 -0.000000 
-0.008029 -0.366058 0.017264 0.033242 8.250442 0.692387 14.258888 0.232030 0.093037 -0.670114 0.111826 -0.630198 -0.191697 0.156455 -0.382823 -1.528447 -1.353091 0.726567 -10.420825 -4.859733 -6.560864 2.470474 -13.364997 -1.273670 -2.978298 -39.385105 -59.652005 2.909446 -53.786055 3.556389 31.327646 2.518202 42.170196 23.665146 15.645680 -8.319101 -14.034636 -3.322562 -19.089886 -14.963927 8.789738 0.806390 -0.872069 3.809625 -10.929110 -0.708263 0.666485 -24.155254 -0.553279 0.133002 -13.911708 -0.000000 -0.000000 0.000000 -0.000000 -0.000000 0.000000 0.000000 0.000000 -0.000000 -0.000000 0.000000 0.000000 0.000000 0.000000 0.000000 0.000000 -0.000000 0.000000 -0.000000 -0.000000 0.000000 0.000000 -0.000000 0.000000 0.000001 0.000000 0.000000 1.883062 -3.864752 8.182230 -11.330469 33.904521 66.596391 2.142748 50.081888 -3.121249 45.815232 6.088990 -30.637029 -0.000000 0.000000 0.000000 -0.000000 0.000000 0.000000 -0.000002 -0.000000 -0.000000 0.000000 -0.000000 -0.000000 0.000001 0.000000 -0.000001 -0.000003 -0.000000 0.000003 -0.000003 0.000000 0.000001 -0.000000 0.000000 -0.000001 0.000004 0.000000 -0.000001 4.035525 -1.762307 -16.525175 -1.678024 0.030344 39.637461 -0.917955 0.247474 17.934765 4.877598 -12.204919 6.585317 -18.775384 0.771278 28.070709 -17.440865 -22.729781 -9.262968 -86.722953 2.261347 2.427178 81.403478 14.083942 10.853581 0.817027 -13.820398 -7.487440 0.000000 -0.000000 -0.000000 -81.147253 13.265420 -16.726427 78.981429 1.181140 6.982896 2.363683 -10.100030 6.327672 0.000000 0.000000 -0.000000 
